<?xml version="1.0" encoding="UTF-8"?><svg id="a" xmlns="http://www.w3.org/2000/svg" viewBox="0 0 640 535"><defs><style>.b{fill:#009245;}.c{fill:#fff;}</style></defs><rect class="b" x="32" y="46" width="576" height="340" rx="12" ry="12"/><rect class="c" x="72" y="86" width="495" height="260" rx="12" ry="12"/><path class="b" d="M232,442c-7.1-.43-18.25-1.29-29,5-7.57,4.43-8.66,8.73-23,25-14.16,16.06-17.77,17.17-17,20,2.44,8.99,40.7,4.34,101,3,27.04-.6,49.25-.33,64,0,33.92,.13,61.9,1.09,82,2,36.88,1.67,59.85,3.77,65-7,3.17-6.63-1.35-16.13-7-28-3.4-7.14-6.76-13.98-14-18-7.02-3.9-14.21-3.23-17-3-15.93,1.28-53.91,1.37-107,1-43.66,1.3-75.26,1.37-98,0Z"/><path class="b" d="M278.31,449c-3.08-4.51,17.78-10.16,26.05-27,4.36-8.87,3.58-17.48,2.89-25-1.47-16.2-8.08-21.25-2.89-26,6.85-6.27,28.26-6.48,36.18,0,5.86,4.79,.25,9.9,0,29-.11,8.72-.21,15.78,2.89,24,6.56,17.4,21.33,23.86,17.37,28-3.57,3.73-15.91-1.13-43.41-2-24.64-.78-36.73,2.43-39.07-1Z"/></svg>