<?xml version="1.0" encoding="UTF-8"?><svg id="a" xmlns="http://www.w3.org/2000/svg" viewBox="0 0 973 1072.09"><defs><style>.b{fill:#c69c6d;}.c{fill:#42210b;}</style></defs><path class="c" d="M298.15,205.4c81.41-86.95,221.29-101.86,322.87-67.43,48.68,16.5,75.64,39.94,81.46,45.13,36.03,32.14,52.25,69.68,62,96,97.76,263.95,57,442,57,442-8.62,37.65-20.36,71.33-26.2,103.88-7.37,41.08-6.79,70.54,9.2,97.12,26.33,43.79,79.43,40.79,79,58-.54,21.43-83.67,56.97-149.98,30-49.28-20.04-52.49-57.61-89.2-61.44-39.14-4.08-45.86,40.66-108.6,68.13-13.54,5.93-78.98,34.59-135.17,3.45-52.05-28.85-45.95-78.86-86.02-90.9-60.13-18.06-113.69,87.66-153.03,73.75-26.37-9.32-26.98-65.55,5.53-403.72,10.31-107.26,26.77-261.77,131.13-393.99v.02Z"/><path class="b" d="M545.39,121.99c-151.15-14.36-294.26,105.53-305.39,209.52-2.13,19.86,1.93,45.45,10.05,96.64,10.52,66.31,17.13,104.3,42.52,146.9,27.25,45.72,61.48,71.42,88.91,92,29.86,22.41,57.32,42.52,98.96,49.48,5.74,.96,32.76,5.18,67.26-1.55,47.52-9.26,78.79-33.34,105.15-54.12,55.27-43.58,82.82-92.47,89.68-105.15,31.19-57.62,37.08-109,40.2-143.8,3.42-38.03,6.77-75.28-3.09-112.11-24.63-92.02-128.06-167.73-234.26-177.82h.01Z"/><path class="c" d="M924.76,845.51c12.07-21.76,16.35-40.61,13.48-58.62-.22-1.37-.42-2.38-.53-2.98-3.14-16.78-12.52-29.82-31.3-55.91-25.21-35.02-37.55-41.55-35.62-56.86,1.92-15.21,15.2-17.41,24.83-36.01,11.47-22.16,4.15-41.31,0-65.39-11.13-64.65,16.39-73.42,6.48-135.51-5.78-36.21-14.25-27.63-29.14-80.55-19.09-67.83-4.96-81.12-24.83-137.41-8.61-24.39-19.14-53.27-46.41-83.39-8.93-9.86-44.47-47.26-107.94-67.28-13.72-4.33-30.71-9.63-47.91-12.79-.83-2.56-1.97-4.81-3.57-6.94-13.37-17.77-44.52-10.23-88.14-8.5-65.19,2.58-63.19-13.21-115.97-8.5-35.48,3.16-68.18,6.07-94.95,29.73-20.7,18.29-17.79,31.25-42.64,52.12-24.78,20.81-36.54,15.37-64.2,31.8-37.61,22.35-65.72,61.92-75.77,101.28-5.13,20.08-3.93,41.48-1.55,84.27,3.48,62.35,12.24,67.15,5.41,88.91-1.23,3.93-3.53,8.03-7.79,16.35-17.04,33.28-29.44,44.43-42.38,65.49-6.75,10.99-21.38,35.3-26,67-3.63,24.91,1.47,36.9,6,73,1.69,13.47,7.36,58.69,4,92-7.3,72.44-56.17,77.81-64.01,139.89-6.22,49.26,15.79,116.17,66.33,136.46,40.01,16.06,94.77-.33,114.66-32.22,11.51-18.46,3.27-29.17,15.16-90.02,7.21-36.89,10.55-33.5,14.21-57.81,8.55-56.65-10.29-65.68-2.84-113.72,1.12-7.25,1.24-5.03,33.17-90.97,19.27-51.88,21.38-58.89,23.69-70.12,7.85-38.23-.99-49.7-.45-92.03,.4-31.94,2.25-91.13,39.43-141.48,24.5-33.18,59.98-47.8,78.86-56.44,34.16-15.63,49.38-13.06,86.85-34.13,24.27-13.65,38.53-21.67,52.32-38.54,14.11-17.26,20.03-34.68,25.81-47.39,18.05,13.1,46.39,13.67,85.29,40.82,13.94,9.73,37.39,27.57,55.05,56.86,.89,1.48,1.36,2.34,2.34,4.07,33.75,59.61,55.33,77.72,62.42,102.06,12.3,42.2-34.52,49.71-37.78,111.82-2.75,52.47,30.1,57.91,29.14,113.72-.98,57.19-35.67,62.24-32.38,112.77,3.75,57.6,50.61,71.9,38.86,110.87-10.9,36.15-52.08,32.86-69.08,74.86-7.84,19.36,6.15,24.83,20.51,95.71,7.58,37.4,5.44,40.74,11.44,47.98,34.72,41.9,169.79,6.93,176.37-36.61,4.21-27.86-46.21-45.91-39.37-79.39,3.82-18.67,19.99-15.44,40.45-52.33h0Z"/></svg>